<?xml version="1.0" standalone="no"?>
<!DOCTYPE svg PUBLIC "-//W3C//DTD SVG 20010904//EN"
 "http://www.w3.org/TR/2001/REC-SVG-20010904/DTD/svg10.dtd">
<svg version="1.0" xmlns="http://www.w3.org/2000/svg"
 width="170.000000pt" height="170.000000pt" viewBox="0 0 170.000000 170.000000"
 preserveAspectRatio="xMidYMid meet">
<metadata>
Created by potrace 1.11, written by Peter Selinger 2001-2013
</metadata>
<g transform="translate(0.000000,170.000000) scale(0.100000,-0.100000)"
fill="#000000" stroke="none">
<path d="M651 1660 c-40 -10 -120 -41 -176 -69 -220 -109 -382 -317 -435 -559
-46 -207 -9 -435 102 -619 47 -78 150 -187 232 -244 38 -27 72 -49 75 -49 4 0
21 27 39 59 l32 59 -32 19 c-103 62 -200 168 -258 283 -157 310 -55 695 235
889 158 105 334 140 536 105 35 -6 36 -5 68 55 l32 60 -23 6 c-13 2 -43 9 -68
15 -75 16 -276 11 -359 -10z"/>
<path d="M1242 1568 c-10 -14 -52 -94 -52 -101 0 -3 19 -17 43 -32 111 -74
219 -206 265 -325 37 -97 46 -143 46 -255 1 -132 -12 -191 -69 -310 -129 -269
-437 -432 -723 -383 l-83 14 -30 -59 c-17 -32 -28 -61 -25 -64 3 -3 33 -11 68
-19 84 -18 252 -17 342 1 310 64 558 304 636 614 27 107 27 299 0 407 -51 202
-192 394 -372 507 -33 20 -33 20 -46 5z"/>
<path d="M359 1188 c-22 -27 -29 -43 -21 -46 6 -2 12 -8 12 -14 0 -6 -6 -8
-14 -5 -21 8 -27 -4 -10 -21 14 -13 17 -13 25 -1 7 11 9 11 9 0 0 -9 10 -12
35 -9 21 2 31 0 26 -5 -5 -5 -34 -7 -65 -5 -31 1 -56 0 -56 -4 0 -5 30 -8 66
-8 52 0 70 4 80 17 7 10 16 14 20 10 5 -4 2 -12 -6 -17 -13 -8 -12 -10 3 -10
16 0 17 -21 17 -295 l0 -295 75 0 c41 0 75 3 75 8 0 4 -31 6 -70 4 l-70 -4 2
294 3 293 2 -289 3 -288 65 4 c69 4 90 14 62 29 -9 6 -17 14 -17 20 0 5 11 2
24 -8 17 -13 21 -22 14 -30 -5 -7 -8 -17 -6 -23 2 -6 14 8 26 32 13 24 17 35
9 25 -14 -16 -15 -16 -28 0 -8 9 -9 14 -2 10 6 -4 20 5 32 20 16 21 20 23 15
8 -4 -15 -4 -17 4 -6 14 19 6 37 -17 37 -12 0 -17 -6 -14 -16 4 -13 4 -13 -6
0 -17 24 -13 29 32 33 l42 4 -47 1 -48 2 0 207 c0 180 -2 209 -17 225 -16 18
-16 19 11 9 15 -6 54 -11 86 -11 50 0 61 3 71 21 8 15 8 19 0 15 -21 -13 -11
21 11 40 19 16 20 16 9 1 -8 -9 -11 -20 -8 -23 2 -3 18 20 35 50 l29 55 -221
-2 -221 -1 213 -6 c211 -5 213 -5 198 -25 -14 -18 -15 -18 -16 -2 0 9 -7 17
-16 17 -9 0 -12 -5 -8 -12 6 -10 4 -10 -7 0 -9 9 -62 12 -190 12 -108 0 -180
4 -184 10 -11 18 -23 11 -56 -32z m55 0 c-4 -6 -10 -5 -15 3 -5 8 -9 12 -10 9
-6 -34 -8 -43 -13 -48 -8 -7 -2 27 9 51 6 14 10 15 21 6 8 -6 11 -16 8 -21z
m8 -25 c-6 -3 -9 -10 -6 -15 4 -7 2 -8 -5 -4 -9 6 -9 11 0 22 6 8 15 12 18 8
3 -4 0 -9 -7 -11z m370 -5 c-7 -7 -12 -8 -12 -2 0 14 12 26 19 19 2 -3 -1 -11
-7 -17z m-12 -70 c0 -5 -29 -8 -65 -8 -36 0 -65 3 -65 8 0 4 29 7 65 7 36 0
65 -3 65 -7z m-150 -50 c0 -5 -4 -6 -10 -3 -6 4 -11 -41 -13 -117 l-3 -123 -2
132 c-2 114 0 132 13 127 8 -4 15 -10 15 -16z m-3 -205 c-2 -27 -3 -5 -3 47 0
52 1 74 3 48 2 -27 2 -69 0 -95z m-4 -165 c6 -4 8 -10 5 -13 -17 -18 -28 12
-26 73 l2 67 3 -60 c2 -33 9 -63 16 -67z m4 -34 c-3 -3 -12 -4 -19 -1 -8 3 -5
6 6 6 11 1 17 -2 13 -5z"/>
<path d="M1045 1201 c-9 -19 -11 -32 -5 -36 6 -3 10 -5 10 -3 0 2 4 18 9 36
12 40 6 41 -14 3z"/>
<path d="M1107 1223 c18 -2 50 -2 70 0 21 2 7 4 -32 4 -38 0 -55 -2 -38 -4z"/>
<path d="M1221 940 c-2 -199 -6 -276 -11 -235 -5 33 -7 160 -6 283 l3 222 -69
0 c-39 0 -68 -4 -68 -10 0 -5 5 -10 10 -10 6 0 10 -5 10 -11 0 -6 -7 -9 -14
-6 -10 4 -13 1 -10 -8 4 -9 -2 -13 -20 -11 -14 2 -27 -3 -30 -11 -3 -8 -2 -12
3 -9 5 3 12 -1 15 -10 4 -10 2 -13 -7 -9 -6 4 -4 0 6 -8 17 -14 24 -32 10 -24
-5 3 -17 0 -28 -4 -15 -7 -11 -8 16 -5 39 5 69 -7 50 -18 -7 -5 -11 -73 -11
-209 -1 -170 -3 -205 -17 -222 -13 -17 -15 -17 -9 -2 5 16 0 18 -54 15 -59 -3
-61 -4 -85 -44 -17 -29 -20 -41 -11 -41 8 0 12 6 9 13 -2 6 0 14 5 18 9 5 10
-30 0 -39 -3 -4 -4 -15 -1 -26 5 -19 14 -20 219 -19 205 1 214 2 229 22 13 19
12 25 -8 61 -21 38 -22 39 -69 34 -28 -3 -48 -1 -48 4 0 6 32 9 75 8 42 -1 78
1 82 5 3 3 -30 6 -75 6 l-82 0 -3 298 -2 297 -4 -295z m-134 -177 c-1 -54 -3
-10 -3 97 0 107 2 151 3 98 2 -54 2 -142 0 -195z m0 -125 c-3 -8 -6 -5 -6 6
-1 11 2 17 5 13 3 -3 4 -12 1 -19z m-67 -15 c0 -5 -16 -8 -35 -8 -19 0 -35 3
-35 8 0 4 16 7 35 7 19 0 35 -3 35 -7z m335 -73 c3 -5 1 -10 -4 -10 -6 0 -11
5 -11 10 0 6 2 10 4 10 3 0 8 -4 11 -10z"/>
<path d="M986 1089 c-10 -19 -11 -27 -4 -18 7 9 18 18 25 20 8 2 9 9 4 18 -7
11 -13 6 -25 -20z"/>
<path d="M1396 625 c-9 -26 -7 -32 5 -12 6 10 9 21 6 23 -2 3 -7 -2 -11 -11z"/>
<path d="M1351 610 c0 -8 6 -23 13 -33 12 -16 14 -16 20 -2 4 10 2 14 -5 9 -8
-4 -9 1 -4 17 4 17 3 20 -3 10 -8 -11 -10 -11 -15 0 -4 11 -6 11 -6 -1z"/>
<path d="M866 525 c-4 -10 -2 -14 5 -9 7 4 10 1 7 -7 -3 -8 -10 -14 -15 -14
-6 0 -15 -3 -19 -7 -4 -5 105 -7 242 -6 l249 3 -210 2 c-202 3 -230 8 -230 35
0 18 -22 20 -29 3z"/>
</g>
</svg>
